<svg xmlns="http://www.w3.org/2000/svg" viewBox="0 0 256 256" role="img" aria-label="unitforge">
  <!-- LEFT HALF (gray) -->
  <path fill="#404041" d="
    M 22 196
    L 22 162
    L 30 152
    L 30 54
    L 26 54
    L 26 48
    L 86 48
    L 86 152
    L 98 162
    L 128 162
    L 128 196
    Z
  "/>

  <!-- RIGHT HALF (orange) -->
  <path fill="#f97316" d="
    M 234 196
    L 128 196
    L 128 162
    L 158 162
    L 170 152
    L 170 48
    L 230 48
    L 230 54
    L 226 54
    L 226 152
    L 234 162
    Z
  "/>

  <!-- Ruler ticks -->
  <g fill="#000000">
    <rect x="22" y="70"  width="24" height="4"/>
    <rect x="22" y="84"  width="14" height="4"/>
    <rect x="22" y="98"  width="24" height="4"/>
    <rect x="22" y="112" width="14" height="4"/>
    <rect x="22" y="126" width="24" height="4"/>
    <rect x="22" y="140" width="14" height="4"/>
  </g>

  <!-- Flame: asymmetric with one dominant peak + smaller right wisp -->
  <path fill="#f97316" d="
    M 198 48
    Q 196 32 204 22
    L 216 0
    L 219 14
    L 228 8
    Q 232 20 230 28
    Q 232 44 220 48
    Z
  "/>
</svg>
